<svg width="60" height="45" viewBox="0 0 60 45" fill="none" xmlns="http://www.w3.org/2000/svg">
<path fill-rule="evenodd" clip-rule="evenodd" d="M0 0H60V45H0V0Z" fill="#F7FCFF"/>
<path fill-rule="evenodd" clip-rule="evenodd" d="M0 27.5006V31.2506H60V27.5006H0ZM0 34.3744V38.1244H60V34.3744H0ZM0 13.7494V17.4994H60V13.7494H0ZM0 41.25V45H60V41.25H0ZM0 20.625V24.375H60V20.625H0ZM0 0V3.75H60V0H0ZM0 6.87563V10.6256H60V6.87563H0Z" fill="#E31D1C"/>
<path d="M0 0H37.5V24.375H0V0Z" fill="#2E42A5"/>
<path fill-rule="evenodd" clip-rule="evenodd" d="M3.22941 5.51086L1.86816 6.46523L2.32754 4.76648L1.11816 3.69023H2.69879L3.22754 2.30273L3.84816 3.69023H5.19441L4.13691 4.76648L4.54566 6.46523L3.22941 5.51086ZM10.7294 5.51086L9.36816 6.46523L9.82754 4.76648L8.62004 3.69023H10.1988L10.7275 2.30273L11.3482 3.69023H12.6944L11.6369 4.76648L12.0457 6.46523L10.7294 5.51086ZM16.8682 6.46523L18.2294 5.50898L19.5457 6.46523L19.1369 4.76648L20.1944 3.69023H18.8482L18.2275 2.30273L17.6988 3.69023H16.12L17.3275 4.76648L16.8682 6.46523ZM25.7294 5.50898L24.3682 6.46523L24.8275 4.76648L23.62 3.69023H25.1988L25.7275 2.30273L26.3482 3.69023H27.6944L26.6369 4.76648L27.0457 6.46523L25.7294 5.50898ZM1.86816 13.9671L3.22941 13.0109L4.54566 13.9671L4.13691 12.2684L5.19441 11.1921H3.84816L3.22754 9.80461L2.69879 11.1921H1.11816L2.32754 12.2684L1.86816 13.9671ZM10.7294 13.0109L9.36816 13.9671L9.82754 12.2684L8.62004 11.1921H10.1988L10.7275 9.80461L11.3482 11.1921H12.6944L11.6369 12.2684L12.0457 13.9671L10.7294 13.0109ZM16.8682 13.9671L18.2294 13.0109L19.5457 13.9671L19.1369 12.2684L20.1944 11.1921H18.8482L18.2275 9.80461L17.6988 11.1921H16.12L17.3275 12.2684L16.8682 13.9671ZM25.7294 13.0109L24.3682 13.9671L24.8275 12.2684L23.62 11.1921H25.1988L25.7275 9.80461L26.3482 11.1921H27.6944L26.6369 12.2684L27.0457 13.9671L25.7294 13.0109ZM1.86816 21.4671L3.22941 20.5109L4.54566 21.4671L4.13691 19.7684L5.19441 18.6921H3.84816L3.22754 17.3046L2.69879 18.6921H1.11816L2.32754 19.7684L1.86816 21.4671ZM10.7294 20.5109L9.36816 21.4671L9.82754 19.7684L8.62004 18.6921H10.1988L10.7275 17.3046L11.3482 18.6921H12.6944L11.6369 19.7684L12.0457 21.4671L10.7294 20.5109ZM16.8682 21.4671L18.2294 20.5109L19.5457 21.4671L19.1369 19.7684L20.1944 18.6921H18.8482L18.2275 17.3046L17.6988 18.6921H16.12L17.3275 19.7684L16.8682 21.4671ZM25.7294 20.5109L24.3682 21.4671L24.8275 19.7684L23.62 18.6921H25.1988L25.7275 17.3046L26.3482 18.6921H27.6944L26.6369 19.7684L27.0457 21.4671L25.7294 20.5109ZM31.8682 6.46711L33.2294 5.51086L34.5457 6.46711L34.1369 4.76836L35.1944 3.69211H33.8482L33.2275 2.30461L32.6988 3.69211H31.1182L32.3275 4.76836L31.8682 6.46711ZM33.2294 13.0109L31.8682 13.9671L32.3275 12.2684L31.1182 11.1921H32.6988L33.2275 9.80461L33.8482 11.1921H35.1944L34.1369 12.2684L34.5457 13.9671L33.2294 13.0109ZM31.8682 21.4671L33.2294 20.5109L34.5457 21.4671L34.1369 19.7684L35.1944 18.6921H33.8482L33.2275 17.3046L32.6988 18.6921H31.1182L32.3275 19.7684L31.8682 21.4671ZM6.97941 9.25898L5.61816 10.2152L6.07754 8.51648L4.86816 7.44023H6.44879L6.97754 6.05273L7.59816 7.44023H8.94441L7.88691 8.51648L8.29566 10.2152L6.97941 9.25898ZM13.1182 10.2152L14.4794 9.25898L15.7957 10.2152L15.3869 8.51648L16.4444 7.44023H15.0982L14.4775 6.05273L13.9488 7.44023H12.3682L13.5775 8.51648L13.1182 10.2152ZM21.9794 9.25898L20.6182 10.2152L21.0775 8.51648L19.87 7.44023H21.4488L21.9775 6.05273L22.5982 7.44023H23.9444L22.8869 8.51648L23.2957 10.2152L21.9794 9.25898ZM5.61816 17.7152L6.97941 16.759L8.29566 17.7152L7.88691 16.0165L8.94441 14.9402H7.59816L6.97754 13.5527L6.44879 14.9402H4.86816L6.07754 16.0165L5.61816 17.7152ZM14.4794 16.759L13.1182 17.7152L13.5775 16.0165L12.37 14.9402H13.9488L14.4775 13.5527L15.0982 14.9402H16.4444L15.3869 16.0165L15.7957 17.7152L14.4794 16.759ZM20.6182 17.7152L21.9794 16.759L23.2957 17.7152L22.8869 16.0165L23.9444 14.9402H22.5982L21.9775 13.5527L21.4488 14.9402H19.87L21.0775 16.0165L20.6182 17.7152ZM29.4794 9.25898L28.1182 10.2152L28.5775 8.51648L27.37 7.44023H28.9488L29.4775 6.05273L30.0982 7.44023H31.4444L30.3869 8.51648L30.7957 10.2152L29.4794 9.25898ZM28.1182 17.7152L29.4794 16.759L30.7957 17.7152L30.3869 16.0165L31.4444 14.9402H30.0982L29.4775 13.5527L28.9488 14.9402H27.37L28.5775 16.0165L28.1182 17.7152Z" fill="#F7FCFF"/>
</svg>
