<svg width="126" height="126" viewBox="0 0 126 126" fill="none" xmlns="http://www.w3.org/2000/svg">
<path d="M63 0.5C28.5 0.5 0.5 28.5 0.5 63C0.5 97.5 28.5 125.5 63 125.5C97.5 125.5 125.5 97.5 125.5 63C125.5 28.5 97.5 0.5 63 0.5ZM46.0625 89.8125L23.625 67.375C23.0464 66.7964 22.5874 66.1094 22.2742 65.3534C21.9611 64.5974 21.7999 63.7871 21.7999 62.9688C21.7999 62.1504 21.9611 61.3401 22.2742 60.5841C22.5874 59.8281 23.0464 59.1411 23.625 58.5625C24.2036 57.9839 24.8906 57.5249 25.6466 57.2117C26.4026 56.8986 27.2129 56.7374 28.0313 56.7374C28.8496 56.7374 29.6599 56.8986 30.4159 57.2117C31.1719 57.5249 31.8589 57.9839 32.4375 58.5625L50.5 76.5625L93.5 33.5625C94.6686 32.3939 96.2536 31.7374 97.9062 31.7374C99.5589 31.7374 101.144 32.3939 102.313 33.5625C103.481 34.7311 104.138 36.3161 104.138 37.9688C104.138 39.6214 103.481 41.2064 102.313 42.375L54.875 89.8125C54.2968 90.3919 53.61 90.8516 52.8539 91.1652C52.0978 91.4788 51.2873 91.6403 50.4688 91.6403C49.6502 91.6403 48.8397 91.4788 48.0836 91.1652C47.3275 90.8516 46.6407 90.3919 46.0625 89.8125Z" fill="#4CAF50"/>
</svg>
